<?xml version="1.0" encoding="UTF-8" standalone="no"?>
<!DOCTYPE svg PUBLIC "-//W3C//DTD SVG 1.1//EN" "http://www.w3.org/Graphics/SVG/1.1/DTD/svg11.dtd">
<svg xmlns="http://www.w3.org/2000/svg" width="640px" height="480px" viewBox="0 0 640 480">

  <g id="mpf102" transform="translate(224, 274)">
    <line style="stroke: rgb(0, 0, 0); stroke-width: 2px;" x1="24" y1="0" x2="24" y2="40"/>
    <line style="stroke: rgb(0, 0, 0);" x1="0" y1="20" x2="24" y2="20"/>
    <line style="stroke: rgb(0, 0, 0);" x1="26" y1="36" x2="40" y2="36"/>
    <line style="stroke: rgb(0, 0, 0); stroke-width: 1px;" x1="26" y1="4" x2="40" y2="4"/>
    <polygon style="fill: rgb(0, 0, 0); stroke: rgb(0, 0, 0);" points="12,16 20,20 12,24"/>

    <text x="28" y="24">MPF102</text>
  </g>

  <g id="c3" transform="translate(25, 325)">
    <path d="M10,0             l0,15             m-15,0              l30,0              m-30,8              l30,0              m-15,0              l0,15" style="stroke: rgb(0, 0, 0);"/>

    <text x="28" y="25">C3</text>
  </g>

  <g id="l1" transform="translate(25, 175)">
    <path d="M10,0                l0,5                a8,8 0 0,0 0,16                a8,8 0 0,0 0,16                a8,8 0 0,0 0,16                a8,8 0 0,0 0,16                l0,5" style="stroke: rgb(0, 0, 0); fill: rgb(255, 255, 255);"/>

    <text x="-13" y="30">L1</text>
  </g>

  <g id="c2" transform="translate(100, 304)">\
    <path d="M10,0              l0,15              m-15,0              l30,0              m-30,8              l30,0              m-15,0              l0,15" style="stroke: rgb(0, 0, 0);" transform="rotate(-90)"/>

    <text x="12" y="20">C2</text>
  </g>

  <g id="rg" transform="translate(175, 325)">
    <path d="M10,0              l0,5              l7,4              l-14,8              l14,8              l-14,8              l7,4              l0,5" style="stroke: rgb(0, 0, 0); fill: rgb(255, 255, 255);"/>

    <text x="20" y="25">R
      <tspan baseline-shift="sub" font-size="8.5">G</tspan>
    </text>
  </g>

  <g id="l2" transform="translate(250, 40)">
    <path d="M10,0                l0,5                a8,8 0 0,0 0,16                a8,8 0 0,0 0,16                a8,8 0 0,0 0,16                a8,8 0 0,0 0,16                l0,5" style="stroke: rgb(0, 0, 0); fill: rgb(255, 255, 255);" transform="translate(5)"/>

    <line x1="0" y1="5" x2="0" y2="69" style="stroke: rgb(0, 0, 0);"/>
    <line x1="4" y1="5" x2="4" y2="69" style="stroke: rgb(0, 0, 0);"/>

    <text x="-18" y="44">L2</text>
  </g>

  <g id="c1" transform="translate(325, 300)">\
    <path d="M10,0              l0,15              m-15,0              l30,0              m-30,8              l30,0              m-15,0              l0,15" style="stroke: rgb(0, 0, 0);"/>

    <text x="28" y="25">C1</text>
  </g>

  <g id="c4" transform="translate(400, 288)">\
    <path d="M10,0              l0,15              m-15,0              l30,0              m-30,8              l30,0              m-15,0              l0,15" style="stroke: rgb(0, 0, 0);" transform="rotate(-90)"/>

    <text x="12" y="25">C4</text>
  </g>

  <g id="vdd" transform="translate(262, 10)">
    <circle cx="3" cy="0" r="3" style="stroke: rgb(0, 0, 0); fill: rgb(255, 255, 255);"/>
    <text x="11" y="2">V
      <tspan baseline-shift="sub" font-size="8.5">DD</tspan>
    </text>
  </g>

  <g id="vo" transform="translate(475, 278)">
    <circle cx="3" cy="0" r="3" style="stroke: rgb(0, 0, 0); fill: rgb(255, 255, 255);"/>
    <text x="11" y="2">v
      <tspan baseline-shift="sub" font-size="8.5">o</tspan>
    </text>
  </g>

  <g id="gnd" transform="translate(25, 435)">
    <polygon points="2,0 18,0 10,14" style="stroke: rgb(0, 0, 0); fill-opacity: 0;"/>
  </g>

  <g id="gnd" transform="translate(175, 435)">
    <polygon points="2,0 18,0 10,14" style="stroke: rgb(0, 0, 0); fill-opacity: 0;"/>
  </g>

  <g id="gnd" transform="translate(255, 435)">
    <polygon points="2,0 18,0 10,14" style="stroke: rgb(0, 0, 0); fill-opacity: 0;"/>
  </g>

  <g id="gnd" transform="translate(325, 435)">
    <polygon points="2,0 18,0 10,14" style="stroke: rgb(0, 0, 0); fill-opacity: 0;"/>
  </g>

  <g id="vg net">
    <path d="M265,13              L265,40" style="stroke: rgb(0, 0, 0); fill-opacity: 0;"/>
  </g>

  <g id="vd net">
    <path d="M265,114              L265,150              L35,150              L35,175              M265,150              L265,278              L335,278              L335,300              M335,278              L400,278" style="stroke: rgb(0, 0, 0); fill-opacity: 0;"/>

    <circle cx="265" cy="150" r="2" style="stroke: rgb(0, 0, 0);"/>
    <circle cx="335" cy="278" r="2" style="stroke: rgb(0, 0, 0);"/>
  </g>

  <g id="vo net">
    <path d="M438,278              L475,278" style="stroke: rgb(0, 0, 0); fill-opacity: 0;"/>
  </g>

  <g id="gnd net">
    <path d="M335,338              L335,435" style="stroke: rgb(0, 0, 0); fill-opacity: 0;"/>
  </g>

  <g id="gnd net">
    <path d="M265,309              L265,435" style="stroke: rgb(0, 0, 0); fill-opacity: 0;"/>
  </g>

  <g id="gnd net">
    <path d="M185,367              L185,435" style="stroke: rgb(0, 0, 0); fill-opacity: 0;"/>
  </g>

  <g id="gnd net">
    <path d="M35,363              L35,435" style="stroke: rgb(0, 0, 0); fill-opacity: 0;"/>
  </g>

  <g id="vg net">
    <path d="M224,294              L185,294              L185,325              M185,294              L138,294" style="stroke: rgb(0, 0, 0); fill-opacity: 0;"/>

    <circle cx="185" cy="294" r="2" style="stroke: rgb(0, 0, 0);"/>
  </g>

  <g id="vdiv net">
    <path d="M100,294              L35,294              L35,249              M35,294              L35,325" style="stroke: rgb(0, 0, 0); fill-opacity: 0;"/>

    <circle cx="35" cy="294" r="2" style="stroke: rgb(0, 0, 0);"/>
  </g>
</svg>