<?xml version="1.0" encoding="UTF-8" standalone="no"?>
<!-- Created with Inkscape (http://www.inkscape.org/) -->
<svg
   xmlns:dc="http://purl.org/dc/elements/1.1/"
   xmlns:cc="http://web.resource.org/cc/"
   xmlns:rdf="http://www.w3.org/1999/02/22-rdf-syntax-ns#"
   xmlns:svg="http://www.w3.org/2000/svg"
   xmlns="http://www.w3.org/2000/svg"
   xmlns:sodipodi="http://sodipodi.sourceforge.net/DTD/sodipodi-0.dtd"
   xmlns:inkscape="http://www.inkscape.org/namespaces/inkscape"
   width="524.40942"
   height="372.04724"
   id="svg2"
   sodipodi:version="0.32"
   inkscape:version="0.45.1"
   version="1.0"
   sodipodi:docbase="/home/steven/Documents/Drawings/wikibooks_physics"
   sodipodi:docname="wheatstone_bridge.svg"
   inkscape:output_extension="org.inkscape.output.svg.inkscape">
  <defs
     id="defs4" />
  <sodipodi:namedview
     id="base"
     pagecolor="#ffffff"
     bordercolor="#666666"
     borderopacity="1.0"
     gridtolerance="10000"
     guidetolerance="10"
     objecttolerance="10"
     inkscape:pageopacity="0.0"
     inkscape:pageshadow="2"
     inkscape:zoom="1.0939471"
     inkscape:cx="262.20471"
     inkscape:cy="186.02362"
     inkscape:document-units="px"
     inkscape:current-layer="layer1"
     width="524.40945px"
     height="372.04724px"
     borderlayer="true"
     inkscape:window-width="872"
     inkscape:window-height="622"
     inkscape:window-x="147"
     inkscape:window-y="119" />
  <metadata
     id="metadata7">
    <rdf:RDF>
      <cc:Work
         rdf:about="">
        <dc:format>image/svg+xml</dc:format>
        <dc:type
           rdf:resource="http://purl.org/dc/dcmitype/StillImage" />
      </cc:Work>
    </rdf:RDF>
  </metadata>
  <g
     inkscape:label="Layer 1"
     inkscape:groupmode="layer"
     id="layer1">
    <path
       style="fill:none;fill-rule:evenodd;stroke:#000000;stroke-width:1px;stroke-linecap:butt;stroke-linejoin:miter;stroke-opacity:1"
       d="M 268.24206,185.56656 L 440.09681,185.56656"
       id="path5132" />
    <path
       style="fill:none;fill-rule:evenodd;stroke:#000000;stroke-width:1px;stroke-linecap:butt;stroke-linejoin:miter;stroke-opacity:1"
       d="M 269.15618,36.564839 L 269.15618,333.65416"
       id="path5130" />
    <path
       style="fill:none;fill-rule:evenodd;stroke:#000000;stroke-width:1;stroke-linecap:butt;stroke-linejoin:miter;stroke-miterlimit:4;stroke-dasharray:none;stroke-opacity:1"
       d="M 59.083141,36.739625 L 440.87994,36.739625 L 440.87994,334.39349 L 62.416914,334.39349"
       id="path2160"
       sodipodi:nodetypes="cccc" />
    <path
       sodipodi:type="arc"
       style="opacity:1;fill:#ffffff;fill-opacity:1;stroke:#000000;stroke-width:3.4191916;stroke-linecap:round;stroke-linejoin:round;stroke-miterlimit:4;stroke-dasharray:none;stroke-dashoffset:0;stroke-opacity:1"
       id="path2164"
       sodipodi:cx="73.129677"
       sodipodi:cy="90.497978"
       sodipodi:rx="13.711815"
       sodipodi:ry="13.711815"
       d="M 86.841492 90.497978 A 13.711815 13.711815 0 1 1  59.417862,90.497978 A 13.711815 13.711815 0 1 1  86.841492 90.497978 z"
       transform="matrix(0.2924668,0,0,0.2924668,40.262713,10.097186)" />
    <path
       transform="matrix(0.2924668,0,0,0.2924668,40.262713,308.09719)"
       d="M 86.841492 90.497978 A 13.711815 13.711815 0 1 1  59.417862,90.497978 A 13.711815 13.711815 0 1 1  86.841492 90.497978 z"
       sodipodi:ry="13.711815"
       sodipodi:rx="13.711815"
       sodipodi:cy="90.497978"
       sodipodi:cx="73.129677"
       id="path3136"
       style="opacity:1;fill:#ffffff;fill-opacity:1;stroke:#000000;stroke-width:3.4191916;stroke-linecap:round;stroke-linejoin:round;stroke-miterlimit:4;stroke-dasharray:none;stroke-dashoffset:0;stroke-opacity:1"
       sodipodi:type="arc" />
    <rect
       style="opacity:1;fill:#ffffff;fill-opacity:1;stroke:#000000;stroke-width:1;stroke-linecap:round;stroke-linejoin:round;stroke-miterlimit:4;stroke-dasharray:none;stroke-dashoffset:0;stroke-opacity:1"
       id="rect3138"
       width="13.711815"
       height="82.270889"
       x="261.88702"
       y="70.387314" />
    <rect
       y="220.3873"
       x="261.88702"
       height="82.270889"
       width="13.711815"
       id="rect3140"
       style="opacity:1;fill:#ffffff;fill-opacity:1;stroke:#000000;stroke-width:1;stroke-linecap:round;stroke-linejoin:round;stroke-miterlimit:4;stroke-dasharray:none;stroke-dashoffset:0;stroke-opacity:1" />
    <path
       style="fill:none;fill-rule:evenodd;stroke:#000000;stroke-width:1px;stroke-linecap:butt;stroke-linejoin:miter;stroke-opacity:1"
       d="M 251.83168,130.7193 L 285.65416,102.38155 L 285.65416,87.755615"
       id="path3142" />
    <g
       id="g4151"
       transform="translate(-98.49221,-78.614405)">
      <path
         transform="matrix(1.4483506,0,0,1.4483506,349.77189,134.47591)"
         d="M 86.841492 90.497978 A 13.711815 13.711815 0 1 1  59.417862,90.497978 A 13.711815 13.711815 0 1 1  86.841492 90.497978 z"
         sodipodi:ry="13.711815"
         sodipodi:rx="13.711815"
         sodipodi:cy="90.497978"
         sodipodi:cx="73.129677"
         id="path3144"
         style="opacity:1;fill:#ffffff;fill-opacity:1;stroke:#000000;stroke-width:0.69044054;stroke-linecap:round;stroke-linejoin:round;stroke-miterlimit:4;stroke-dasharray:none;stroke-dashoffset:0;stroke-opacity:1"
         sodipodi:type="arc" />
      <path
         id="flowRoot4115"
         d="M 448.62109,266.99224 L 445.28125,258.24419 L 446.51758,258.24419 L 449.28906,265.60943 L 452.06641,258.24419 L 453.29688,258.24419 L 449.96289,266.99224 L 448.62109,266.99224"
         transform="matrix(2.7780149,0,0,2.7780149,-791.48201,-462.96445)" />
    </g>
    <path
       d="M 45.344587,198.23641 L 45.344587,194.38068 C 46.406286,194.88362 47.481969,195.26779 48.571636,195.53322 C 49.661302,195.79866 50.730011,195.93137 51.777763,195.93137 C 54.571721,195.93137 56.702165,194.99538 58.169025,193.1234 C 59.649797,191.23746 60.494987,188.3806 60.704559,184.55284 C 59.894274,185.75426 58.867479,186.67627 57.624174,187.31886 C 56.380834,187.96153 55.004812,188.28282 53.496074,188.28282 C 50.366765,188.28282 47.887094,187.33986 46.057059,185.45389 C 44.240937,183.55397 43.332911,180.96258 43.332911,177.6796 C 43.332911,174.46653 44.282851,171.88908 46.182767,169.94722 C 48.082682,168.00542 50.611242,167.03453 53.768481,167.03449 C 57.386671,167.03453 60.14576,168.42453 62.045676,171.20454 C 63.959539,173.9706 64.916488,177.99395 64.916524,183.27459 C 64.916488,188.20597 63.742993,192.14553 61.396074,195.09316 C 59.063068,198.02688 55.919847,199.4937 51.966342,199.4937 C 50.904607,199.4937 49.828924,199.38892 48.739293,199.17938 C 47.649627,198.96984 46.518046,198.65552 45.344587,198.23641 M 53.768481,184.97191 C 55.668361,184.97195 57.170162,184.32234 58.273776,183.02311 C 59.391373,181.72394 59.950172,179.94276 59.950172,177.6796 C 59.950172,175.43045 59.391373,173.65628 58.273776,172.35704 C 57.170162,171.04389 55.668361,170.38732 53.768481,170.38728 C 51.86853,170.38732 50.359791,171.04389 49.242194,172.35704 C 48.13858,173.65628 47.586755,175.43045 47.586755,177.6796 C 47.586755,179.94276 48.13858,181.72394 49.242194,183.02311 C 50.359791,184.32234 51.86853,184.97195 53.768481,184.97191 M 80.150753,198.88602 L 68.206445,167.60026 L 72.627946,167.60026 L 82.539622,193.94066 L 92.472255,167.60026 L 96.872799,167.60026 L 84.949448,198.88602 L 80.150753,198.88602"
       id="flowRoot4123" />
    <rect
       y="70.387314"
       x="433.88702"
       height="82.270889"
       width="13.711815"
       id="rect4155"
       style="opacity:1;fill:#ffffff;fill-opacity:1;stroke:#000000;stroke-width:1;stroke-linecap:round;stroke-linejoin:round;stroke-miterlimit:4;stroke-dasharray:none;stroke-dashoffset:0;stroke-opacity:1" />
    <rect
       style="opacity:1;fill:#ffffff;fill-opacity:1;stroke:#000000;stroke-width:1;stroke-linecap:round;stroke-linejoin:round;stroke-miterlimit:4;stroke-dasharray:none;stroke-dashoffset:0;stroke-opacity:1"
       id="rect4157"
       width="13.711815"
       height="82.270889"
       x="433.88702"
       y="220.3873" />
    <path
       d="M 32.454974,35.03503 L 54.039034,35.03503 L 54.039034,38.38343 L 32.454974,38.38343 L 32.454974,35.03503"
       id="flowRoot5142" />
    <path
       d="M 43.67374,321.59621 L 43.67374,332.42603 L 54.503569,332.42603 L 54.503569,335.73138 L 43.67374,335.73138 L 43.67374,346.56121 L 40.40728,346.56121 L 40.40728,335.73138 L 29.577451,335.73138 L 29.577451,332.42603 L 40.40728,332.42603 L 40.40728,321.59621 L 43.67374,321.59621"
       id="flowRoot5150" />
    <path
       d="M 215.93795,268.19851 L 219.48213,268.19851 L 219.48213,255.96577 L 215.6265,256.73903 L 215.6265,254.7629 L 219.46065,253.98962 L 221.6301,253.98962 L 221.6301,268.19851 L 225.17425,268.19851 L 225.17425,270.02429 L 215.93795,270.02429 L 215.93795,268.19851 M 229.1695,253.31301 L 231.15639,253.31301 L 231.15639,263.18298 L 237.05258,257.99561 L 239.57647,257.99561 L 233.19697,263.62331 L 239.84496,270.02429 L 237.26738,270.02429 L 231.15639,264.14956 L 231.15639,270.02429 L 229.1695,270.02429 L 229.1695,253.31301 M 255.85814,268.11258 L 255.85814,270.02429 L 249.41419,270.02429 L 249.41419,268.11258 C 250.68149,267.41808 251.66957,266.47654 252.37841,265.288 C 253.08723,264.09945 253.44164,262.78202 253.44166,261.33572 C 253.44164,259.61734 252.96909,258.23906 252.02399,257.20086 C 251.07887,256.16268 249.83304,255.64358 248.28651,255.64358 C 246.73997,255.64358 245.49056,256.16626 244.53829,257.2116 C 243.59317,258.2498 243.12062,259.62451 243.12062,261.33572 C 243.12062,262.78202 243.47504,264.09945 244.18388,265.288 C 244.89986,266.47654 245.89509,267.41808 247.16956,268.11258 L 247.16956,270.02429 L 240.72563,270.02429 L 240.72563,268.11258 L 244.15165,268.11258 C 243.02038,267.11735 242.19341,266.08632 241.67073,265.0195 C 241.15522,263.95267 240.89747,262.76054 240.89747,261.44311 C 240.89747,259.16627 241.58482,257.32259 242.95953,255.91207 C 244.32707,254.50158 246.10273,253.79632 248.28651,253.7963 C 250.45596,253.79632 252.23163,254.50158 253.6135,255.91207 C 254.98819,257.31542 255.67554,259.12331 255.67556,261.33572 C 255.67554,262.72474 255.42137,263.94909 254.91302,265.00875 C 254.40465,266.06843 253.57411,267.10304 252.42137,268.11258 L 255.85814,268.11258"
       id="flowRoot5158" />
    <path
       d="M 459.60941,267.28439 L 463.15359,267.28439 L 463.15359,255.05165 L 459.29796,255.82491 L 459.29796,253.84878 L 463.13211,253.0755 L 465.30156,253.0755 L 465.30156,267.28439 L 468.84571,267.28439 L 468.84571,269.11017 L 459.60941,269.11017 L 459.60941,267.28439 M 472.84096,252.39889 L 474.82785,252.39889 L 474.82785,262.26886 L 480.72404,257.08149 L 483.24793,257.08149 L 476.86843,262.70919 L 483.51642,269.11017 L 480.93884,269.11017 L 474.82785,263.23544 L 474.82785,269.11017 L 472.84096,269.11017 L 472.84096,252.39889 M 499.5296,267.19846 L 499.5296,269.11017 L 493.08565,269.11017 L 493.08565,267.19846 C 494.35295,266.50396 495.34103,265.56242 496.04987,264.37388 C 496.75869,263.18533 497.1131,261.8679 497.11312,260.4216 C 497.1131,258.70322 496.64055,257.32494 495.69545,256.28674 C 494.75033,255.24856 493.5045,254.72946 491.95797,254.72946 C 490.41143,254.72946 489.16202,255.25214 488.20975,256.29748 C 487.26463,257.33568 486.79208,258.71039 486.79208,260.4216 C 486.79208,261.8679 487.1465,263.18533 487.85534,264.37388 C 488.57132,265.56242 489.56655,266.50396 490.84102,267.19846 L 490.84102,269.11017 L 484.39709,269.11017 L 484.39709,267.19846 L 487.82311,267.19846 C 486.69184,266.20323 485.86487,265.1722 485.34219,264.10538 C 484.82668,263.03855 484.56893,261.84642 484.56893,260.52899 C 484.56893,258.25215 485.25628,256.40847 486.63099,254.99795 C 487.99853,253.58746 489.77419,252.8822 491.95797,252.88218 C 494.12742,252.8822 495.90309,253.58746 497.28496,254.99795 C 498.65965,256.4013 499.347,258.20919 499.34702,260.4216 C 499.347,261.81062 499.09283,263.03497 498.58448,264.09463 C 498.07611,265.15431 497.24557,266.18892 496.09283,267.19846 L 499.5296,267.19846"
       id="flowRoot5171" />
    <path
       d="M 460.52353,117.36855 L 464.06771,117.36855 L 464.06771,105.13581 L 460.21208,105.90907 L 460.21208,103.93294 L 464.04623,103.15966 L 466.21568,103.15966 L 466.21568,117.36855 L 469.75983,117.36855 L 469.75983,119.19433 L 460.52353,119.19433 L 460.52353,117.36855 M 473.75508,102.48305 L 475.74197,102.48305 L 475.74197,112.35302 L 481.63816,107.16565 L 484.16205,107.16565 L 477.78255,112.79335 L 484.43054,119.19433 L 481.85296,119.19433 L 475.74197,113.3196 L 475.74197,119.19433 L 473.75508,119.19433 L 473.75508,102.48305 M 500.44372,117.28262 L 500.44372,119.19433 L 493.99977,119.19433 L 493.99977,117.28262 C 495.26707,116.58812 496.25515,115.64658 496.96399,114.45804 C 497.67281,113.26949 498.02722,111.95206 498.02724,110.50576 C 498.02722,108.78738 497.55467,107.4091 496.60957,106.3709 C 495.66445,105.33272 494.41862,104.81362 492.87209,104.81362 C 491.32555,104.81362 490.07614,105.3363 489.12387,106.38164 C 488.17875,107.41984 487.7062,108.79455 487.7062,110.50576 C 487.7062,111.95206 488.06062,113.26949 488.76946,114.45804 C 489.48544,115.64658 490.48067,116.58812 491.75514,117.28262 L 491.75514,119.19433 L 485.31121,119.19433 L 485.31121,117.28262 L 488.73723,117.28262 C 487.60596,116.28739 486.77899,115.25636 486.25631,114.18954 C 485.7408,113.12271 485.48305,111.93058 485.48305,110.61315 C 485.48305,108.33631 486.1704,106.49263 487.54511,105.08211 C 488.91265,103.67162 490.68831,102.96636 492.87209,102.96634 C 495.04154,102.96636 496.81721,103.67162 498.19908,105.08211 C 499.57377,106.48546 500.26112,108.29335 500.26114,110.50576 C 500.26112,111.89478 500.00695,113.11913 499.4986,114.17879 C 498.99023,115.23847 498.15969,116.27308 497.00695,117.28262 L 500.44372,117.28262"
       id="flowRoot5179" />
    <path
       d="M 148.39089,104.9879 L 150.57109,104.9879 L 150.57109,114.729 C 150.57109,116.44738 150.88254,117.68605 151.50547,118.44499 C 152.12837,119.19679 153.13792,119.57269 154.53411,119.57267 C 155.92313,119.57269 156.9291,119.19679 157.55203,118.44499 C 158.17492,117.68605 158.48637,116.44738 158.48639,114.729 L 158.48639,104.9879 L 160.66658,104.9879 L 160.66658,114.99749 C 160.66658,117.08819 160.14747,118.66694 159.1093,119.73377 C 158.07827,120.80062 156.5532,121.33402 154.53411,121.33402 C 152.50785,121.33402 150.97562,120.80062 149.93744,119.73377 C 148.90641,118.66694 148.39089,117.08819 148.39089,114.99749 L 148.39089,104.9879 M 166.57353,119.21826 L 166.57353,125.59776 L 164.58666,125.59776 L 164.58666,108.99389 L 166.57353,108.99389 L 166.57353,110.81966 C 166.9888,110.10368 167.51148,109.57385 168.14156,109.23017 C 168.77878,108.87935 169.53773,108.70392 170.41842,108.70392 C 171.87903,108.70392 173.06399,109.28388 173.97332,110.44378 C 174.88977,111.60369 175.348,113.12875 175.34802,115.01897 C 175.348,116.90919 174.88977,118.43425 173.97332,119.59416 C 173.06399,120.75408 171.87903,121.33402 170.41842,121.33402 C 169.53773,121.33402 168.77878,121.16218 168.14156,120.81851 C 167.51148,120.46768 166.9888,119.93426 166.57353,119.21826 M 173.2967,115.01897 C 173.29669,113.5655 172.99597,112.42708 172.39455,111.60369 C 171.80027,110.77314 170.98045,110.35787 169.93513,110.35785 C 168.88976,110.35787 168.06637,110.77314 167.46494,111.60369 C 166.87067,112.42708 166.57353,113.5655 166.57353,115.01897 C 166.57353,116.47244 166.87067,117.61445 167.46494,118.44499 C 168.06637,119.26839 168.88976,119.68008 169.93513,119.68008 C 170.98045,119.68008 171.80027,119.26839 172.39455,118.44499 C 172.99597,117.61445 173.29669,116.47244 173.2967,115.01897 M 187.58076,105.5786 L 187.58076,108.99389 L 191.65118,108.99389 L 191.65118,110.52969 L 187.58076,110.52969 L 187.58076,117.05955 C 187.58076,118.04046 187.71321,118.67054 187.97813,118.94977 C 188.25021,119.22902 188.79795,119.36863 189.62134,119.36863 L 191.65118,119.36863 L 191.65118,121.02257 L 189.62134,121.02257 C 188.09628,121.02257 187.04377,120.73974 186.46381,120.17412 C 185.88386,119.60132 185.59387,118.56313 185.59387,117.05955 L 185.59387,110.52969 L 184.144,110.52969 L 184.144,108.99389 L 185.59387,108.99389 L 185.59387,105.5786 L 187.58076,105.5786 M 198.92209,110.37933 C 197.86241,110.37935 197.0247,110.79462 196.40894,111.62517 C 195.79319,112.44856 195.48533,113.57983 195.48533,115.01897 C 195.48533,116.45812 195.78961,117.59297 196.39822,118.42351 C 197.01396,119.24691 197.85525,119.6586 198.92209,119.6586 C 199.97458,119.6586 200.80872,119.24333 201.42448,118.41277 C 202.04022,117.58223 202.3481,116.45095 202.34812,115.01897 C 202.3481,113.59415 202.04022,112.46647 201.42448,111.63591 C 200.80872,110.7982 199.97458,110.37935 198.92209,110.37933 M 198.92209,108.70392 C 200.64046,108.70392 201.99011,109.2624 202.97102,110.37933 C 203.95192,111.49629 204.44238,113.04284 204.4424,115.01897 C 204.44238,116.98795 203.95192,118.5345 202.97102,119.6586 C 201.99011,120.77554 200.64046,121.33402 198.92209,121.33402 C 197.19654,121.33402 195.84332,120.77554 194.8624,119.6586 C 193.88865,118.5345 193.40178,116.98795 193.40178,115.01897 C 193.40178,113.04284 193.88865,111.49629 194.8624,110.37933 C 195.84332,109.2624 197.19654,108.70392 198.92209,108.70392 M 215.36486,119.19679 L 218.90902,119.19679 L 218.90902,106.96405 L 215.05341,107.73731 L 215.05341,105.76118 L 218.88755,104.9879 L 221.05701,104.9879 L 221.05701,119.19679 L 224.60116,119.19679 L 224.60116,121.02257 L 215.36486,121.02257 L 215.36486,119.19679 M 228.59641,104.31129 L 230.5833,104.31129 L 230.5833,114.18126 L 236.47949,108.99389 L 239.00338,108.99389 L 232.62388,114.62159 L 239.27186,121.02257 L 236.69429,121.02257 L 230.5833,115.14784 L 230.5833,121.02257 L 228.59641,121.02257 L 228.59641,104.31129 M 255.28505,119.11086 L 255.28505,121.02257 L 248.8411,121.02257 L 248.8411,119.11086 C 250.1084,118.41636 251.09648,117.47482 251.80532,116.28628 C 252.51414,115.09773 252.86855,113.7803 252.86857,112.334 C 252.86855,110.61562 252.396,109.23734 251.4509,108.19914 C 250.50578,107.16096 249.25995,106.64186 247.71342,106.64186 C 246.16688,106.64186 244.91747,107.16454 243.9652,108.20988 C 243.02008,109.24808 242.54753,110.62279 242.54753,112.334 C 242.54753,113.7803 242.90195,115.09773 243.61079,116.28628 C 244.32677,117.47482 245.322,118.41636 246.59646,119.11086 L 246.59646,121.02257 L 240.15254,121.02257 L 240.15254,119.11086 L 243.57856,119.11086 C 242.44729,118.11563 241.62032,117.0846 241.09764,116.01778 C 240.58212,114.95095 240.32438,113.75882 240.32438,112.44139 C 240.32438,110.16455 241.01173,108.32087 242.38644,106.91035 C 243.75398,105.49986 245.52964,104.7946 247.71342,104.79458 C 249.88287,104.7946 251.65854,105.49986 253.04041,106.91035 C 254.4151,108.3137 255.10245,110.12159 255.10247,112.334 C 255.10245,113.72302 254.84828,114.94737 254.33993,116.00703 C 253.83156,117.06671 253.00102,118.10132 251.84828,119.11086 L 255.28505,119.11086"
       id="flowRoot5187" />
  </g>
</svg>
