<?xml version="1.0" encoding="UTF-8" standalone="no"?>
<svg xmlns="http://www.w3.org/2000/svg" xmlns:xlink="http://www.w3.org/1999/xlink" width="770" height="490">
<defs>
  <marker id="join" viewBox="0,0 1,1" refX="0.5" refY="0.5" markerWidth="6" markerHeight="6">
    <circle r="0.5" cx="0.5" cy="0.5" stroke="none" fill="black" />
  </marker>
  
  <g id="term">
    <circle r="3" stroke="black" fill="white" />
  </g>
  
  <g id="res" fill="none" stroke="black">
    <polyline points="-20,0 -17.5,-6 -12.5,6 -7.5,-6 -2.5,6 2.5,-6 7.5,6 12.5,-6 17.5,6 20,0" stroke-width="1.5" stroke-linecap="round" />
  </g>
  
  <g id="bjt-npn" fill="none" stroke="black" stroke-linecap="round">
    <circle r="19" cx="8" stroke="black" fill="white" />
    <rect x="0" y="-15" width="3" height="30" fill="black" stroke="none" />
    <line x1="3" y1="-8" x2="20" y2="-15" />
    <line x1="3" y1="8" x2="20" y2="15" />
    <polygon points="0,0 8,4 8,-4" stroke="none" fill="black" transform="translate(20, 15) rotate(-158)" />
  </g>
  
  <g id="bjt-pnp" fill="none" stroke="black" stroke-linecap="round">
    <circle r="19" cx="8" stroke="black" fill="white" />
    <rect x="0" y="-15" width="3" height="30" fill="black" stroke="none" />
    <line x1="3" y1="-8" x2="20" y2="-15" />
    <line x1="3" y1="8" x2="20" y2="15" />
    <polygon points="0,0 8,4 8,-4" stroke="none" fill="black" transform="translate(3, -8) rotate(-22)" />
  </g>
  
  <g id="cap" fill="black" stroke="none">
    <rect x="-6" y="-10" width="2" height="20" />
    <rect x="4" y="-10" width="2" height="20" />
  </g>
</defs>

<g font-family="Times New Roman, serif" font-size="16">
  <use xlink:href="#bjt-npn" x="80" y="150" />
  <line x1="50" y1="150" x2="80" y2="150" stroke="black" fill="none" />
  <use xlink:href="#term" x="50" y="150" />
  <text x="50" y="123" text-anchor="middle">Non-inverting</text>
  <text x="50" y="139" text-anchor="middle">input</text>
  <text x="50" y="171" text-anchor="middle">3</text>
  
  <line x1="100" y1="165" x2="100" y2="205" stroke="black" fill="none" />
  <use xlink:href="#bjt-pnp" transform="translate(120, 220) scale(-1, 1)" />
  
  <line x1="100" y1="235" x2="100" y2="325" stroke="black" fill="none" />
  <use xlink:href="#bjt-npn" transform="translate(120, 340) scale(-1, 1)" />
  
  <line x1="100" y1="355" x2="100" y2="400" stroke="black" fill="none" />
  <use xlink:href="#res" transform="translate(100, 420) rotate(90)" />
  <text x="110" y="425" text-anchor="start">1 kΩ</text>
  <polyline points="100,440 100,460 740,460" stroke="black" fill="none" />
  
  <line x1="50" y1="380" x2="100" y2="380" stroke="black" fill="none" marker-end="url(#join)" />
  <use xlink:href="#term" x="50" y="380" />
  <text x="50" y="369" text-anchor="middle">1</text>
  <text x="50" y="401" text-anchor="middle">Offset</text>
  <text x="50" y="417" text-anchor="middle">null</text>
  
  <use xlink:href="#bjt-npn" x="135" y="290" />
  <line x1="100" y1="290" x2="135" y2="290" stroke="black" fill="none" marker-start="url(#join)" />
  <line x1="155" y1="305" x2="155" y2="340" stroke="black" fill="none" marker-end="url(#join)" />
  
  <line x1="170" y1="340" x2="170" y2="380" stroke="black" fill="none" marker-start="url(#join)" />
  <use xlink:href="#res" transform="translate(170, 400) rotate(90)" />
  <text x="180" y="395" text-anchor="start">50 kΩ</text>
  <line x1="170" y1="420" x2="170" y2="460" stroke="black" fill="none" marker-end="url(#join)" />
  
  <use xlink:href="#bjt-npn" x="220" y="340" />
  <line x1="120" y1="340" x2="220" y2="340" stroke="black" fill="none" />
  <line x1="240" y1="355" x2="240" y2="400" stroke="black" fill="none" />
  <use xlink:href="#res" transform="translate(240, 420) rotate(90)" />
  <text x="230" y="435" text-anchor="end">1 kΩ</text>
  <line x1="240" y1="440" x2="240" y2="460" stroke="black" fill="none" marker-end="url(#join)" />
  
  <line x1="240" y1="380" x2="290" y2="380" stroke="black" fill="none" marker-start="url(#join)" />
  <use xlink:href="#term" x="290" y="380" />
  <text x="290" y="369" text-anchor="middle">5</text>
  <text x="290" y="401" text-anchor="middle">Offset</text>
  <text x="290" y="417" text-anchor="middle">null</text>
  
  <use xlink:href="#bjt-pnp" x="220" y="220" />
  <line x1="120" y1="220" x2="220" y2="220" stroke="black" fill="none" />
  <line x1="240" y1="235" x2="240" y2="325" stroke="black" fill="none" />
  
  <use xlink:href="#bjt-npn" transform="translate(260, 150) scale(-1, 1)" />
  <line x1="260" y1="150" x2="290" y2="150" stroke="black" fill="none" />
  <use xlink:href="#term" x="290" y="150" />
  <text x="290" y="123" text-anchor="middle">Inverting</text>
  <text x="290" y="139" text-anchor="middle">input</text>
  <text x="290" y="171" text-anchor="middle">2</text>
  <line x1="240" y1="165" x2="240" y2="205" stroke="black" fill="none" />
  
  <polyline points="155,275 155,20 740,20" stroke="black" fill="none" />
  <use xlink:href="#term" x="740" y="20" />
  <text x="740" y="41" text-anchor="middle">7</text>
  <text x="740" y="57" text-anchor="middle" font-style="italic">V<tspan dy="4" font-size="12">S<tspan font-style="normal">+</tspan></tspan></text>
  
  <use xlink:href="#bjt-pnp" transform="translate(200, 65) scale(-1, 1)" />
  <line x1="180" y1="20" x2="180" y2="50" stroke="black" fill="none" marker-start="url(#join)" />
  <polyline points="100,135 100,110 240,110 240,135" stroke="black" fill="none" />
  <line x1="180" y1="80" x2="180" y2="110" stroke="black" fill="none" marker-end="url(#join)" />
  <line x1="225" y1="65" x2="225" y2="110" stroke="black" fill="none" marker-start="url(#join)" marker-end="url(#join)" />
  
  <use xlink:href="#bjt-pnp" x="310" y="65" />
  <line x1="200" y1="65" x2="310" y2="65" stroke="black" fill="none" />
  <line x1="330" y1="20" x2="330" y2="50" stroke="black" fill="none" marker-start="url(#join)" />
  <line x1="330" y1="80" x2="330" y2="345" stroke="black" fill="none" />
  <polyline points="190,220 190,260 330,260" stroke="black" fill="none" marker-start="url(#join)" marker-end="url(#join)" />
  
  <use xlink:href="#bjt-npn" transform="translate(350, 360) scale(-1, 1)" />
  <line x1="330" y1="375" x2="330" y2="400" stroke="black" fill="none" />
  <use xlink:href="#res" transform="translate(330, 420) rotate(90)" />
  <text x="340" y="425" text-anchor="start">5 kΩ</text>
  <line x1="330" y1="440" x2="330" y2="460" stroke="black" fill="none" marker-end="url(#join)" />
  
  <use xlink:href="#bjt-npn" x="400" y="360" />
  <line x1="350" y1="360" x2="400" y2="360" stroke="black" fill="none" />
  <line x1="420" y1="375" x2="420" y2="460" stroke="black" fill="none" marker-end="url(#join)" />
  <polyline points="375,360 375,320 420,320" stroke="black" fill="none" marker-start="url(#join)" marker-end="url(#join)" />
  
  <use xlink:href="#bjt-pnp" transform="translate(440, 55) scale(-1, 1)" />
  <line x1="420" y1="20" x2="420" y2="40" stroke="black" fill="none" marker-start="url(#join)" />
  
  <line x1="420" y1="70" x2="420" y2="180" stroke="black" fill="none" />
  <use xlink:href="#res" transform="translate(420, 200) rotate(90)" />
  <line x1="420" y1="220" x2="420" y2="345" stroke="black" fill="none" />
  <text x="410" y="205" text-anchor="end">39 kΩ</text>
  
  <use xlink:href="#bjt-npn" transform="translate(500, 380) scale(-1, 1)" />
  <polyline points="240,285 480,285 480,365" stroke="black" fill="none" marker-start="url(#join)" />
  <line x1="480" y1="395" x2="480" y2="460" stroke="black" fill="none" marker-end="url(#join)" />
  
  <use xlink:href="#bjt-npn" x="520" y="300" />
  <line x1="480" y1="300" x2="520" y2="300" stroke="black" fill="none" marker-start="url(#join)" />
  <line x1="540" y1="315" x2="540" y2="400" stroke="black" fill="none" />
  <use xlink:href="#res" transform="translate(540, 420) rotate(90)" />
  <text x="530" y="425" text-anchor="end">50 kΩ</text>
  <line x1="540" y1="440" x2="540" y2="460" stroke="black" fill="none" marker-end="url(#join)" />
  
  <use xlink:href="#bjt-npn" x="580" y="340" />
  <line x1="540" y1="340" x2="580" y2="340" stroke="black" fill="none" marker-start="url(#join)" />
  <line x1="600" y1="355" x2="600" y2="400" stroke="black" fill="none" />
  <use xlink:href="#res" transform="translate(600, 420) rotate(90)" />
  <text x="590" y="425" text-anchor="end">50 Ω</text>
  <line x1="600" y1="440" x2="600" y2="460" stroke="black" fill="none" marker-end="url(#join)" />
  <line x1="500" y1="380" x2="600" y2="380" stroke="black" fill="none" marker-end="url(#join)" />
  
  <line x1="540" y1="285" x2="540" y2="240" stroke="black" fill="none" />
  <use xlink:href="#res" transform="translate(540, 220) rotate(90)" />
  <text x="550" y="225" text-anchor="start">7.5 kΩ</text>
  <line x1="540" y1="200" x2="540" y2="160" stroke="black" fill="none" />
  <use xlink:href="#res" transform="translate(540, 140) rotate(90)" />
  <text x="550" y="145" text-anchor="start">4.5 kΩ</text>
  <line x1="540" y1="120" x2="540" y2="100" stroke="black" fill="none" marker-end="url(#join)" />
  
  <use xlink:href="#bjt-npn" x="580" y="180" />
  <line x1="540" y1="180" x2="580" y2="180" stroke="black" fill="none" marker-start="url(#join)" />
  <line x1="600" y1="195" x2="600" y2="325" stroke="black" fill="none" />
  <line x1="540" y1="260" x2="600" y2="260" stroke="black" fill="none" marker-start="url(#join)" marker-end="url(#join)" />
  
  <line x1="480" y1="285" x2="480" y2="185" stroke="black" fill="none" marker-start="url(#join)" />
  <use xlink:href="#cap" transform="translate(480, 180) rotate(90)" />
  <polyline points="480,175 480,100 600,100" stroke="black" fill="none" marker-end="url(#join)" />
  <text x="493" y="185" text-anchor="start">30 pF</text>
  
  <use xlink:href="#bjt-pnp" x="580" y="55" />
  <line x1="440" y1="55" x2="580" y2="55" stroke="black" fill="none" />
  <polyline points="420,85 465,85 465,55" stroke="black" fill="none" marker-start="url(#join)" marker-end="url(#join)" />
  <line x1="600" y1="20" x2="600" y2="40" stroke="black" fill="none" marker-start="url(#join)" />
  <line x1="600" y1="70" x2="600" y2="165" stroke="black" fill="none" />
  
  <use xlink:href="#bjt-npn" transform="translate(660, 125) scale(-1, 1)" />
  <use xlink:href="#bjt-npn" x="680" y="85" />
  <line x1="600" y1="85" x2="680" y2="85" stroke="black" fill="none" marker-start="url(#join)" />
  <line x1="640" y1="85" x2="640" y2="110" stroke="black" fill="none" marker-start="url(#join)" />
  <line x1="660" y1="125" x2="700" y2="125" stroke="black" fill="none" marker-end="url(#join)" />
  <line x1="700" y1="20" x2="700" y2="70" stroke="black" fill="none" marker-start="url(#join)" />
  
  <line x1="700" y1="100" x2="700" y2="140" stroke="black" fill="none" />
  <use xlink:href="#res" transform="translate(700, 160) rotate(90)" />
  <text x="690" y="165" text-anchor="end">25 Ω</text>
  <polyline points="640,140 640,195 700,195" stroke="black" fill="none" marker-end="url(#join)" />
  
  <line x1="700" y1="180" x2="700" y2="225" stroke="black" fill="none" />
  <use xlink:href="#res" transform="translate(700, 245) rotate(90)" />
  <text x="690" y="250" text-anchor="end">50 Ω</text>
  <line x1="700" y1="265" x2="700" y2="285" stroke="black" fill="none" />
  
  <use xlink:href="#bjt-pnp" x="680" y="300" />
  <line x1="600" y1="300" x2="680" y2="300" stroke="black" fill="none" marker-start="url(#join)" />
  <line x1="700" y1="315" x2="700" y2="460" stroke="black" fill="none" marker-end="url(#join)" />
  
  <line x1="700" y1="210" x2="740" y2="210" stroke="black" fill="none" marker-start="url(#join)" />
  <use xlink:href="#term" x="740" y="210" />
  <text x="740" y="199" text-anchor="middle">6</text>
  <text x="740" y="231" text-anchor="middle">Output</text>
  
  <use xlink:href="#term" x="740" y="460" />
  <text x="740" y="449" text-anchor="middle">4</text>
  <text x="740" y="481" text-anchor="middle" font-style="italic">V<tspan dy="4" font-size="12">S<tspan font-style="normal">−</tspan></tspan></text>
</g>
</svg>
